<svg width="28" height="28" viewBox="0 0 28 28" fill="none" xmlns="http://www.w3.org/2000/svg">
  <rect width="28" height="28" rx="3" fill="#062427"/>
  <path d="M21.0222 8H19.6889C17.0222 8 14.9778 9.51111 13.9111 11.3778C12.8444 9.42222 10.7111 8 8.13333 8H6.8C6.35556 8 6 8.35556 6 8.8V10.1333C6 13.8667 9.02222 16.8 12.6667 16.8H13.2V20C13.2 20.4444 13.5556 20.8 14 20.8C14.4444 20.8 14.8 20.4444 14.8 20V16.8H15.3333C18.9778 16.8 22 13.8667 22 10.1333V8.8C21.8222 8.35556 21.4667 8 21.0222 8ZM13.0222 15.1111H12.4889C9.73333 15.1111 7.51111 12.8889 7.51111 10.1333V9.6H8.04445C10.8 9.6 13.0222 11.8222 13.0222 14.5778V15.1111ZM20.2222 10.1333C20.2222 12.8889 18 15.1111 15.2444 15.1111H14.7111V14.5778C14.7111 11.8222 16.9333 9.6 19.6889 9.6H20.2222V10.1333Z" fill="white"/>
</svg>