<svg width="28" height="28" viewBox="0 0 28 28" fill="none" xmlns="http://www.w3.org/2000/svg">
  <rect width="28" height="28" rx="3" fill="#FF612F"/>
  <path fill-rule="evenodd" clip-rule="evenodd" d="M14 5C11.57 5 9.60001 6.96994 9.60001 9.4C9.60001 11.8301 11.57 13.8 14 13.8C16.4301 13.8 18.4 11.8301 18.4 9.4C18.4 6.96994 16.4301 5 14 5ZM11.2 9.4C11.2 7.8536 12.4536 6.6 14 6.6C15.5464 6.6 16.8 7.8536 16.8 9.4C16.8 10.9464 15.5464 12.2 14 12.2C12.4536 12.2 11.2 10.9464 11.2 9.4Z" fill="white"/>
  <path d="M10.8 15.4C8.14903 15.4 6 17.549 6 20.2V21.8C6 22.2418 6.35818 22.6 6.8 22.6C7.24182 22.6 7.6 22.2418 7.6 21.8V20.2C7.6 18.4327 9.03269 17 10.8 17H17.2C18.9673 17 20.4 18.4327 20.4 20.2V21.8C20.4 22.2418 20.7582 22.6 21.2 22.6C21.6418 22.6 22 22.2418 22 21.8V20.2C22 17.549 19.851 15.4 17.2 15.4H10.8Z" fill="white"/>
</svg>